<svg xmlns="http://www.w3.org/2000/svg" version="1.1" xmlns:xlink="http://www.w3.org/1999/xlink" xmlns:svgjs="http://svgjs.dev/svgjs" width="1500" height="1500" viewBox="0 0 1500 1500"><rect width="1500" height="1500" fill="#ffffff"></rect><g transform="matrix(0.6666666666666666,0,0,0.6666666666666666,249.39393939393938,609.2862207912863)"><svg viewBox="0 0 396 112" data-background-color="#ffffff" preserveAspectRatio="xMidYMid meet" height="424" width="1500" xmlns="http://www.w3.org/2000/svg" xmlns:xlink="http://www.w3.org/1999/xlink"><g id="tight-bounds" transform="matrix(1,0,0,1,0.2400000000000091,-0.24548370975492162)"><svg viewBox="0 0 395.52 112.49096741950986" height="112.49096741950986" width="395.52"><g><svg viewBox="0 0 395.52 112.49096741950986" height="112.49096741950986" width="395.52"><g><svg viewBox="0 0 395.52 112.49096741950986" height="112.49096741950986" width="395.52"><g id="textblocktransform"><svg viewBox="0 0 395.52 112.49096741950986" height="112.49096741950986" width="395.52" id="textblock"><g><svg viewBox="0 0 395.52 112.49096741950986" height="112.49096741950986" width="395.52"><rect width="395.52" height="112.49096741950986" x="0" y="0" opacity="1" fill="#000000" data-fill-palette-color="tertiary"></rect><g transform="matrix(1,0,0,1,23.607599999999998,23.607599999999998)"><svg width="348.3048" viewBox="1.55 -38.05 208.07999999999998 39" height="65.27576741950986" data-palette-color="#ffffff"><path d="M21.05-35.65Q24.7-35.65 27.5-34.43 30.3-33.2 32.25-31.1L32.25-31.1 27.25-26.6Q25.65-27.9 24.23-28.48 22.8-29.05 20.9-29.05L20.9-29.05Q17.2-29.05 14.95-26.5 12.7-23.95 11.8-20.13 10.9-16.3 10.9-12.2L10.9-12.2Q10.9-8.7 12.13-7.23 13.35-5.75 15.9-5.75L15.9-5.75Q18-5.75 20.2-6.7L20.2-6.7 21.2-13.8 17.25-13.8 17.35-20.2 30.9-20.2 28.5-2.85Q25.6-1.05 22.15-0.05 18.7 0.95 15.45 0.95L15.45 0.95Q8.45 0.95 5-2.58 1.55-6.1 1.55-12.95L1.55-12.95Q1.55-18.65 3.58-23.83 5.6-29 9.98-32.33 14.35-35.65 21.05-35.65L21.05-35.65ZM44.25 0.95Q38.85 0.95 35.85-2.08 32.85-5.1 32.85-10.5L32.85-10.5Q32.85-14.75 34.35-18.63 35.85-22.5 39.25-25.03 42.65-27.55 48-27.55L48-27.55Q53.35-27.55 56.4-24.53 59.45-21.5 59.45-16.25L59.45-16.25Q59.45-12.05 57.97-8.13 56.5-4.2 53.07-1.63 49.65 0.95 44.25 0.95L44.25 0.95ZM44.95-5.55Q48.1-5.55 49.3-9.15 50.5-12.75 50.5-16.85L50.5-16.85Q50.5-19.05 49.72-20.08 48.95-21.1 47.35-21.1L47.35-21.1Q44.2-21.1 43-17.57 41.8-14.05 41.8-10L41.8-10Q41.8-7.65 42.55-6.6 43.3-5.55 44.95-5.55L44.95-5.55ZM77-27.55Q79.9-27.55 82.82-26.83 85.75-26.1 88.34-24.6L88.34-24.6 85.95-8.1Q85.84-7.2 85.84-6.95L85.84-6.95Q85.84-6.15 86.12-5.7 86.4-5.25 87.15-4.95L87.15-4.95 84.65 0.75Q82.25 0.6 80.47-0.5 78.7-1.6 78.05-3.65L78.05-3.65Q74.84 0.95 70.09 0.95L70.09 0.95Q65.95 0.95 63.67-1.93 61.4-4.8 61.4-9.8L61.4-9.8Q61.4-14.05 63-18.1 64.59-22.15 68.09-24.85 71.59-27.55 77-27.55L77-27.55ZM76.7-21.35Q73.5-21.35 71.97-17.8 70.45-14.25 70.45-9.8L70.45-9.8Q70.45-7.4 71.12-6.48 71.8-5.55 73-5.55L73-5.55Q75.4-5.55 77.45-8.9L77.45-8.9 79.2-20.95Q77.84-21.35 76.7-21.35L76.7-21.35ZM103.59-38.05L99.34-7.75Q99.14-6.1 100.34-6.1L100.34-6.1Q100.69-6.1 101.49-6.3L101.49-6.3 102.44-0.1Q101.29 0.4 99.84 0.68 98.39 0.95 96.99 0.95L96.99 0.95Q93.84 0.95 92.12-0.7 90.39-2.35 90.39-5.5L90.39-5.5Q90.39-6.35 90.54-7.3L90.54-7.3 94.74-37.15 103.59-38.05ZM109.19-34.75L130.24-34.75 128.39-28.2 117.39-28.2 116.24-19.85 125.89-19.85 124.99-13.3 115.34-13.3 113.44 0 104.34 0 109.19-34.75ZM141.84-38.05L137.59-7.75Q137.39-6.1 138.59-6.1L138.59-6.1Q138.94-6.1 139.74-6.3L139.74-6.3 140.69-0.1Q139.54 0.4 138.09 0.68 136.64 0.95 135.24 0.95L135.24 0.95Q132.09 0.95 130.36-0.7 128.64-2.35 128.64-5.5L128.64-5.5Q128.64-6.35 128.79-7.3L128.79-7.3 132.99-37.15 141.84-38.05ZM154.19 0.95Q148.79 0.95 145.79-2.08 142.79-5.1 142.79-10.5L142.79-10.5Q142.79-14.75 144.29-18.63 145.79-22.5 149.19-25.03 152.59-27.55 157.94-27.55L157.94-27.55Q163.29-27.55 166.34-24.53 169.39-21.5 169.39-16.25L169.39-16.25Q169.39-12.05 167.91-8.13 166.44-4.2 163.01-1.63 159.59 0.95 154.19 0.95L154.19 0.95ZM154.89-5.55Q158.04-5.55 159.24-9.15 160.44-12.75 160.44-16.85L160.44-16.85Q160.44-19.05 159.66-20.08 158.89-21.1 157.29-21.1L157.29-21.1Q154.14-21.1 152.94-17.57 151.74-14.05 151.74-10L151.74-10Q151.74-7.65 152.49-6.6 153.24-5.55 154.89-5.55L154.89-5.55ZM201.23-26.65L209.63-26.65 200.68 0 190.53 0 189.98-18.7 184.33 0 174.08 0 172.38-26.65 181.23-26.65 180.58-6.75 187.08-26.65 195.43-26.65 195.83-6.75 201.23-26.65Z" opacity="1" transform="matrix(1,0,0,1,0,0)" fill="#ffffff" class="wordmark-text-0" data-fill-palette-color="quaternary" id="text-0"></path></svg></g></svg></g></svg></g></svg></g></svg></g><defs></defs></svg><rect width="395.52" height="112.49096741950986" fill="none" stroke="none" visibility="hidden"></rect></g></svg></g></svg>